PathFileType	4	(X/Y/Z)	s10c0101.trc
DataRate	CameraRate	NumFrames	NumMarkers	Units	OrigDataRate	OrigDataStartFrame	OrigNumFrames
200	200	4	49	mm	200	250	2000
Frame#	Time	racr			lacr			c7			jug			rlel			rdr			llel			ldr			s2			lic			ric			lasi			rasi			rpsi			lpsi			rgt			lgt			rth1			rth2			rth3			rth4			rlfc			rmfc			rsh1			rsh2			rsh3			rsh4			rlmal			rmmal			rcal			rtoe			rmt5			lth1			lth2			lth4			lth3			llfc			lmfc			llmal			lcal			lmt5			lsh1			lsh2			lsh3			lsh4			ltoe			SBIKE			LBIKE			RBIKE			
		X1	Y1	Z1	X2	Y2	Z2	X3	Y3	Z3	X4	Y4	Z4	X5	Y5	Z5	X6	Y6	Z6	X7	Y7	Z7	X8	Y8	Z8	X9	Y9	Z9	X10	Y10	Z10	X11	Y11	Z11	X12	Y12	Z12	X13	Y13	Z13	X14	Y14	Z14	X15	Y15	Z15	X16	Y16	Z16	X17	Y17	Z17	X18	Y18	Z18	X19	Y19	Z19	X20	Y20	Z20	X21	Y21	Z21	X22	Y22	Z22	X23	Y23	Z23	X24	Y24	Z24	X25	Y25	Z25	X26	Y26	Z26	X27	Y27	Z27	X28	Y28	Z28	X29	Y29	Z29	X30	Y30	Z30	X31	Y31	Z31	X32	Y32	Z32	X33	Y33	Z33	X34	Y34	Z34	X35	Y35	Z35	X36	Y36	Z36	X37	Y37	Z37	X38	Y38	Z38	X39	Y39	Z39	X40	Y40	Z40	X41	Y41	Z41	X42	Y42	Z42	X43	Y43	Z43	X44	Y44	Z44	X45	Y45	Z45	X46	Y46	Z46	X47	Y47	Z47	X48	Y48	Z48	X49	Y49	Z49	
250	1.2500	398.359880	1286.653685	-48.590807	398.016168	1290.460909	-397.778669	387.775241	1353.801544	-224.530855	402.160135	1210.578658	-219.602857	491.483879	1046.490178	13.910322	641.113393	876.916266	-47.267453	477.506115	1037.746525	-475.756951	636.687094	882.312662	-410.764362	-111.168477	1111.686518	-219.579299	58.520946	1103.274507	-374.324164	75.906496	1121.272664	-78.862723	73.255098	1012.248100	-342.116929	59.517293	1039.630016	-83.888991	-62.424095	1161.817492	-166.348326	-54.216994	1160.872770	-275.743442	-51.190105	1031.379221	-19.589193	-56.559072	984.636270	-411.464836	57.556751	934.914526	-6.112078	144.117198	922.507130	-20.876744	210.747183	869.006575	-26.181843	156.784547	956.938684	-29.670496	310.975119	821.464042	-47.072238	300.599060	811.493395	-164.667579	256.985688	719.428570	-21.519830	256.349030	631.004040	-35.258351	212.615295	556.690444	-40.800905	285.393617	627.153106	-60.468243	185.619996	455.795821	-59.822777	203.098497	478.925228	-140.079027	133.541695	423.239040	-103.976468	374.756488	443.735297	-105.123771	300.171424	403.417169	-40.777690	9.269387	870.509390	-429.192106	81.317138	822.538683	-420.367851	107.944164	846.590120	-413.168437	120.199499	742.835052	-416.230964	187.600396	655.383362	-400.450985	194.278558	651.620760	-282.786635	-46.635411	363.479020	-378.922155	-105.700986	362.230266	-334.045726	15.341323	234.945701	-399.853377	98.428794	570.119267	-424.224290	75.547729	486.612454	-407.596491	10.347642	426.148776	-399.489393	101.361437	475.836671	-381.869023	101.635783	218.404490	-344.537550	-218.817583	833.940861	-214.352982	-103.971587	80.374633	-418.187279	-104.003053	80.431898	-18.194422	
251	1.2550	398.444285	1286.683345	-48.592076	398.061515	1290.502083	-397.646733	387.731252	1353.722469	-224.482000	402.162150	1210.466302	-219.539578	491.333052	1046.414735	13.988983	641.073398	877.017501	-47.294816	477.547201	1037.769643	-475.741617	636.688586	882.298140	-410.842894	-111.298521	1111.714692	-219.547323	58.375466	1103.404447	-374.345412	75.816031	1121.442716	-78.820293	73.168679	1012.439012	-342.058903	59.407168	1039.791693	-83.910534	-62.514451	1161.907339	-166.427475	-54.403392	1161.092257	-275.822111	-51.153498	1031.469461	-19.579313	-56.637694	984.577181	-411.407045	57.574428	934.875219	-6.192104	144.104798	922.342656	-21.011737	210.626596	868.622287	-26.245423	156.879751	956.751140	-29.724999	310.594187	820.817992	-47.710205	300.358197	810.975287	-164.841411	256.895320	718.985311	-21.626795	256.225485	630.611911	-35.311037	212.559475	556.107859	-40.822467	285.282744	626.675243	-60.534439	185.628324	455.169722	-59.822914	202.967469	478.442406	-140.120073	133.452859	422.575680	-103.736024	374.707822	443.624950	-105.082293	300.197063	403.102741	-40.749454	9.279128	870.538191	-429.154602	81.350637	822.626706	-420.384538	107.987992	846.706742	-413.193793	120.303394	742.937575	-416.256221	187.731094	655.508939	-400.561726	194.444934	651.728914	-282.906843	-46.575217	363.748518	-378.882967	-105.623054	362.629869	-334.013738	15.284159	235.200847	-399.856866	98.512579	570.332146	-424.288248	75.601342	486.820123	-407.577503	10.401536	426.380717	-399.457074	101.405692	476.008529	-381.884454	101.562354	218.546674	-344.546670	-218.773628	833.950067	-214.356448	-103.977158	80.362167	-418.169718	-104.009684	80.434274	-18.191006	
252	1.2600	398.575230	1286.734905	-48.576813	398.113584	1290.549509	-397.505903	387.712396	1353.626964	-224.457074	402.144490	1210.310715	-219.482423	491.182308	1046.321235	14.031054	640.884481	877.268800	-46.008293	477.584408	1037.810642	-475.706778	636.672081	882.243417	-410.894643	-111.435401	1111.788259	-219.520769	58.218408	1103.552080	-374.369062	75.717567	1121.626023	-78.794222	73.072758	1012.708553	-342.015640	59.276027	1040.001616	-83.962919	-62.617378	1162.069608	-166.495177	-54.618741	1161.222494	-275.946006	-51.088710	1031.559868	-19.594815	-56.709730	984.477771	-411.301622	57.614767	934.879060	-6.273535	144.145486	922.177378	-21.090088	210.525781	868.304127	-26.360109	156.982529	956.564984	-29.784625	310.385121	820.363821	-47.873246	300.153416	810.593787	-164.931127	256.785407	718.501178	-21.747764	256.179189	630.124564	-35.365139	212.509645	555.640614	-40.849180	285.183111	626.085353	-60.629472	185.598223	454.538087	-59.796998	202.040864	477.146385	-139.720204	133.474042	421.983223	-103.732554	374.625945	443.456082	-105.026780	300.209654	402.740541	-40.684958	9.306425	870.585555	-429.094349	81.399107	822.728569	-420.385949	108.020409	846.818744	-413.252986	120.421798	743.052367	-416.301236	187.874686	655.637295	-400.682345	194.638138	651.844691	-283.008872	-46.488680	364.027612	-378.889386	-105.510541	362.981400	-333.973964	15.203481	235.410056	-399.843428	98.610693	570.517031	-424.345291	75.664756	487.040547	-407.588872	10.481885	426.625006	-399.448455	101.486687	476.223118	-381.887922	101.460253	218.604125	-344.521308	-218.755219	833.930027	-214.303090	-103.977307	80.337189	-418.174341	-104.008586	80.437293	-18.204176	
253	1.2650	398.734086	1286.820023	-48.565225	398.174051	1290.609962	-397.336763	387.678523	1353.509096	-224.400174	402.113174	1210.164445	-219.412124	490.997636	1046.251426	14.116213	640.815180	877.366372	-45.955917	477.625400	1037.852759	-475.666059	636.633722	882.160015	-410.943683	-111.613196	1111.840968	-219.489265	57.974064	1103.701593	-374.336412	75.586922	1121.954281	-78.710376	72.984736	1012.926245	-341.962398	59.113585	1040.232866	-83.986977	-62.826557	1162.268086	-166.537885	-54.815665	1161.403934	-276.051739	-51.005495	1031.692740	-19.615236	-56.814571	984.400860	-411.244038	57.692300	934.895046	-6.355198	144.149491	922.037468	-21.215639	210.402508	868.001105	-26.514596	157.088661	956.350431	-29.849576	310.159177	819.863951	-48.010686	299.881795	810.189089	-165.062820	256.750668	717.946149	-21.859647	256.209148	629.423339	-35.462558	212.475160	555.059066	-40.850853	285.176289	625.594603	-60.658534	185.581444	454.019460	-59.730837	201.921323	476.499592	-139.781372	133.428625	421.372609	-103.508212	374.576411	443.275885	-104.973784	300.270036	402.374492	-40.631881	9.381360	870.637354	-428.860485	81.453563	822.809659	-420.394510	108.064405	846.935713	-413.284591	120.556742	743.164807	-416.336769	188.033517	655.798718	-400.787119	194.889837	651.976192	-283.138834	-46.360320	364.400573	-378.967626	-105.405098	363.403551	-333.933515	15.137615	235.622324	-399.822405	98.716630	570.721226	-424.394709	75.757247	487.262201	-407.627370	10.563019	426.851929	-399.460255	101.596727	476.468053	-381.947743	101.371583	218.715581	-344.559213	-218.727801	833.959368	-214.328552	-103.944331	80.392984	-418.234222	-103.994553	80.443686	-18.179213	
